<svg width="230" height="609" viewBox="0 0 230 609" fill="none" xmlns="http://www.w3.org/2000/svg">
<path d="M160.17 60.2256C83.7586 114.917 33.9624 204.419 33.9624 305.553C33.9624 406.686 83.7586 496.189 160.17 550.88" stroke="#8BBCDD" stroke-width="2.1796"/>
<circle cx="43.2515" cy="217.719" r="42.1617" fill="white" stroke="url(#paint0_linear_14_405)" stroke-width="2.1796"/>
<circle cx="185.928" cy="565.419" r="42.1617" fill="white" stroke="url(#paint1_linear_14_405)" stroke-width="2.1796"/>
<circle cx="54.541" cy="397.831" r="42.1617" fill="white" stroke="url(#paint2_linear_14_405)" stroke-width="2.1796"/>
<path fill-rule="evenodd" clip-rule="evenodd" d="M48.3242 399.968C48.3242 398.662 49.159 397.55 50.3242 397.138V393.968H45.3242V379.968H63.3242V393.968H58.3242V397.138C59.4894 397.55 60.3242 398.662 60.3242 399.968V400.088C60.6434 400.114 60.9909 400.17 61.3354 400.285C61.8883 400.468 62.4512 400.807 62.8637 401.41C63.2709 402.006 63.467 402.763 63.467 403.67C63.467 404.031 63.6322 404.315 64.0009 404.552C64.3982 404.807 64.9927 404.968 65.6456 404.968C66.2985 404.968 66.893 404.807 67.2903 404.552C67.659 404.315 67.8242 404.031 67.8242 403.67V392.823C66.3785 392.393 65.3242 391.053 65.3242 389.468V385.468C65.3242 383.535 66.8912 381.968 68.8242 381.968C70.7572 381.968 72.3242 383.535 72.3242 385.468V389.468C72.3242 391.053 71.27 392.393 69.8242 392.823V403.67C69.8242 404.841 69.1947 405.706 68.3715 406.235C67.5768 406.745 66.582 406.968 65.6456 406.968C64.7092 406.968 63.7144 406.745 62.9197 406.235C62.0964 405.706 61.467 404.841 61.467 403.67C61.467 403.045 61.3327 402.715 61.2131 402.54C61.0988 402.373 60.9385 402.26 60.7057 402.183C60.5893 402.144 60.4606 402.117 60.3214 402.098C60.2531 403.695 58.9374 404.968 57.3242 404.968H51.3242C49.6673 404.968 48.3242 403.625 48.3242 401.968H47.8242C46.8658 401.968 46.1207 402.097 45.6289 402.425C45.2225 402.696 44.8242 403.215 44.8242 404.468C44.8242 405.451 44.4905 406.278 43.9063 406.862C43.3315 407.437 42.5716 407.718 41.8242 407.718C41.0769 407.718 40.3169 407.437 39.7421 406.862C39.1579 406.278 38.8242 405.451 38.8242 404.468V396.823C37.3785 396.393 36.3242 395.053 36.3242 393.468V389.468C36.3242 387.535 37.8912 385.968 39.8242 385.968C41.7572 385.968 43.3242 387.535 43.3242 389.468V393.468C43.3242 395.053 42.2699 396.393 40.8242 396.823V404.468C40.8242 404.985 40.9905 405.282 41.1563 405.448C41.3315 405.623 41.5716 405.718 41.8242 405.718C42.0769 405.718 42.3169 405.623 42.4921 405.448C42.6579 405.282 42.8242 404.985 42.8242 404.468C42.8242 402.72 43.426 401.49 44.5195 400.761C45.5277 400.089 46.7826 399.968 47.8242 399.968H48.3242ZM55.0077 383.175L52.5673 386.253H47.3242V381.968H61.3242V391.968H47.3242V388.253H53.5341L54.7175 386.761L56.9274 390.723L59.7141 387.396H61.3242V385.396H58.7804L57.2593 387.212L55.0077 383.175ZM41.3242 393.468C41.3242 394.296 40.6526 394.968 39.8242 394.968C38.9958 394.968 38.3242 394.296 38.3242 393.468H41.3242ZM39.8242 387.968C40.6526 387.968 41.3242 388.639 41.3242 389.468V391.468H38.3242V389.468C38.3242 388.639 38.9958 387.968 39.8242 387.968ZM56.3242 401.968C56.8765 401.968 57.3242 401.52 57.3242 400.968C57.3242 400.415 56.8765 399.968 56.3242 399.968C55.7719 399.968 55.3242 400.415 55.3242 400.968C55.3242 401.52 55.7719 401.968 56.3242 401.968ZM53.3242 400.968C53.3242 401.52 52.8765 401.968 52.3242 401.968C51.7719 401.968 51.3242 401.52 51.3242 400.968C51.3242 400.415 51.7719 399.968 52.3242 399.968C52.8765 399.968 53.3242 400.415 53.3242 400.968ZM68.8242 383.968C69.6526 383.968 70.3242 384.639 70.3242 385.468V389.468C70.3242 390.296 69.6526 390.968 68.8242 390.968C67.9958 390.968 67.3242 390.296 67.3242 389.468V385.468C67.3242 384.639 67.9958 383.968 68.8242 383.968ZM52.3242 396.968H56.3242V393.968H52.3242V396.968Z" fill="black"/>
<path d="M57.3242 405.968C57.6748 405.968 58.0114 405.907 58.3242 405.797V409.968H68.3242V411.968H40.3242V409.968H50.3242V405.797C50.637 405.907 50.9736 405.968 51.3242 405.968H52.3242V409.968H56.3242V405.968H57.3242Z" fill="black"/>
<path d="M44.8242 415.968C45.6526 415.968 46.3242 415.296 46.3242 414.468C46.3242 413.639 45.6526 412.968 44.8242 412.968C43.9958 412.968 43.3242 413.639 43.3242 414.468C43.3242 415.296 43.9958 415.968 44.8242 415.968Z" fill="black"/>
<path d="M63.8242 415.968C64.6526 415.968 65.3242 415.296 65.3242 414.468C65.3242 413.639 64.6526 412.968 63.8242 412.968C62.9958 412.968 62.3242 413.639 62.3242 414.468C62.3242 415.296 62.9958 415.968 63.8242 415.968Z" fill="black"/>
<circle cx="180.311" cy="43.2515" r="42.1617" fill="white" stroke="url(#paint3_linear_14_405)" stroke-width="2.1796"/>
<path fill-rule="evenodd" clip-rule="evenodd" d="M180.15 58.8857C188.987 58.8857 196.15 51.7223 196.15 42.8857C196.15 34.0491 188.987 26.8857 180.15 26.8857C171.313 26.8857 164.15 34.0491 164.15 42.8857C164.15 51.7223 171.313 58.8857 180.15 58.8857ZM180.15 60.8857C190.091 60.8857 198.15 52.8268 198.15 42.8857C198.15 32.9446 190.091 24.8857 180.15 24.8857C170.209 24.8857 162.15 32.9446 162.15 42.8857C162.15 52.8268 170.209 60.8857 180.15 60.8857Z" fill="black"/>
<path fill-rule="evenodd" clip-rule="evenodd" d="M172.845 46.8857C174.4 50.7176 177.264 52.8857 180.15 52.8857C183.036 52.8857 185.9 50.7176 187.455 46.8857H172.845ZM180.15 54.8857C176.112 54.8857 172.612 51.8378 170.892 47.3857C170.875 47.3429 170.859 47.3 170.843 47.257C170.394 46.0657 171.35 44.8857 172.623 44.8857H187.677C188.95 44.8857 189.905 46.0657 189.457 47.257C189.441 47.3 189.425 47.3429 189.408 47.3857C187.688 51.8378 184.188 54.8857 180.15 54.8857Z" fill="black"/>
<path d="M177.452 41.3274C177.582 40.9697 177.543 40.5327 177.436 40.1342C177.323 39.7186 177.116 39.2708 176.825 38.8549C176.245 38.0257 175.282 37.2634 173.981 37.2087C172.634 37.1522 171.628 38.0069 171.008 38.9141C170.693 39.3744 170.459 39.8723 170.313 40.3304C170.17 40.776 170.094 41.2322 170.144 41.5968C170.167 41.766 170.275 41.9117 170.43 41.9831C170.585 42.0546 170.766 42.042 170.91 41.9498C171.309 41.6934 171.729 41.3425 172.117 41.0183C172.293 40.8706 172.463 40.7285 172.622 40.6034C173.184 40.1593 173.622 39.9062 173.984 39.8885C174.329 39.8716 174.727 40.0692 175.229 40.4445C175.408 40.5788 175.582 40.7208 175.763 40.868C175.827 40.9204 175.892 40.9735 175.958 41.027C176.202 41.2239 176.462 41.4262 176.723 41.5844C176.851 41.6619 177.007 41.6779 177.149 41.6282C177.29 41.5784 177.401 41.468 177.452 41.3274Z" fill="black"/>
<path d="M182.763 41.3274C182.633 40.9697 182.672 40.5327 182.78 40.1342C182.892 39.7186 183.099 39.2708 183.39 38.8549C183.971 38.0257 184.934 37.2634 186.234 37.2087C187.581 37.1522 188.588 38.0069 189.208 38.9141C189.522 39.3744 189.756 39.8723 189.903 40.3304C190.045 40.776 190.121 41.2322 190.071 41.5968C190.048 41.766 189.94 41.9117 189.785 41.9831C189.63 42.0546 189.449 42.042 189.306 41.9498C188.906 41.6934 188.486 41.3425 188.099 41.0183C187.922 40.8706 187.752 40.7285 187.594 40.6034C187.031 40.1593 186.594 39.9062 186.231 39.8885C185.886 39.8716 185.488 40.0692 184.986 40.4445C184.807 40.5788 184.633 40.7208 184.453 40.868C184.388 40.9204 184.323 40.9735 184.257 41.027C184.013 41.2239 183.754 41.4262 183.492 41.5844C183.364 41.6619 183.208 41.6779 183.067 41.6282C182.926 41.5784 182.814 41.468 182.763 41.3274Z" fill="black"/>
<path d="M38.2524 208.582V211.582H35.2524V213.582H38.2524V216.582H40.2524V213.582H43.2524V211.582H40.2524V208.582H38.2524Z" fill="black"/>
<path d="M36.2524 219.582C35.7001 219.582 35.2524 220.03 35.2524 220.582C35.2524 221.134 35.7001 221.582 36.2524 221.582H50.2524C50.8047 221.582 51.2524 221.134 51.2524 220.582C51.2524 220.03 50.8047 219.582 50.2524 219.582H36.2524Z" fill="black"/>
<path d="M35.2524 225.582C35.2524 225.03 35.7001 224.582 36.2524 224.582H50.2524C50.8047 224.582 51.2524 225.03 51.2524 225.582C51.2524 226.134 50.8047 226.582 50.2524 226.582H36.2524C35.7001 226.582 35.2524 226.134 35.2524 225.582Z" fill="black"/>
<path d="M36.2524 229.582C35.7001 229.582 35.2524 230.03 35.2524 230.582C35.2524 231.134 35.7001 231.582 36.2524 231.582H50.2524C50.8047 231.582 51.2524 231.134 51.2524 230.582C51.2524 230.03 50.8047 229.582 50.2524 229.582H36.2524Z" fill="black"/>
<path fill-rule="evenodd" clip-rule="evenodd" d="M36.2524 200.582C36.2524 198.925 37.5955 197.582 39.2524 197.582H47.2524C48.9093 197.582 50.2524 198.925 50.2524 200.582H54.2524C55.9093 200.582 57.2524 201.925 57.2524 203.582V234.582C57.2524 236.239 55.9093 237.582 54.2524 237.582H32.2524C30.5955 237.582 29.2524 236.239 29.2524 234.582V203.582C29.2524 201.925 30.5955 200.582 32.2524 200.582H36.2524ZM47.2524 205.582C48.9093 205.582 50.2524 204.239 50.2524 202.582H54.2524C54.8047 202.582 55.2524 203.03 55.2524 203.582V234.582C55.2524 235.134 54.8047 235.582 54.2524 235.582H32.2524C31.7001 235.582 31.2524 235.134 31.2524 234.582V203.582C31.2524 203.03 31.7001 202.582 32.2524 202.582H36.2524C36.2524 204.239 37.5955 205.582 39.2524 205.582H47.2524ZM39.2524 199.582C38.7001 199.582 38.2524 200.03 38.2524 200.582V202.582C38.2524 203.134 38.7001 203.582 39.2524 203.582H47.2524C47.8047 203.582 48.2524 203.134 48.2524 202.582V200.582C48.2524 200.03 47.8047 199.582 47.2524 199.582H39.2524Z" fill="black"/>
<path fill-rule="evenodd" clip-rule="evenodd" d="M198.826 554.643L196.5 547.111L194.174 554.643L189.674 556.786L194.194 558.938L196.5 565.527L198.806 558.938L203.326 556.786L198.826 554.643ZM195.826 556.072L196.5 553.889L197.174 556.072L198.674 556.786L197.194 557.491L196.5 559.473L195.806 557.491L194.326 556.786L195.826 556.072Z" fill="black"/>
<path d="M181 557L182 553L183 557L186 558L183 559L182 563L181 559L178 558L181 557Z" fill="black"/>
<path fill-rule="evenodd" clip-rule="evenodd" d="M175 580.749V580.996C175 582.101 174.105 582.996 173 582.996H170C168.895 582.996 168 582.101 168 580.996V570.001C168 568.896 168.895 568.001 170 568.001H173C173.946 568.001 174.739 568.658 174.947 569.54C176.271 569.063 177.818 568.495 178.291 568.279C178.693 568.096 179.157 568.034 179.543 568.011C179.949 567.988 180.37 568.004 180.738 568.033C181.109 568.061 181.446 568.104 181.69 568.14C181.812 568.157 181.912 568.173 181.982 568.185C182.018 568.191 182.046 568.196 182.066 568.2L182.089 568.204L182.096 568.205L182.1 568.206L182.117 568.209L188.806 569.71L188.848 569.723L188.859 569.727L188.906 569.741C188.948 569.753 189.012 569.772 189.094 569.795C189.259 569.841 189.496 569.902 189.779 569.964C190.354 570.089 191.078 570.207 191.754 570.207C192.378 570.207 193.023 570.439 193.368 571.071C193.664 571.613 193.595 572.209 193.485 572.622C193.346 573.135 193.06 573.675 192.697 574.134C193.188 573.949 193.724 573.73 194.3 573.494L194.423 573.443C196.046 572.777 197.97 571.987 199.668 571.707C201.608 571.386 203.019 572.09 203.659 573.339C204.229 574.451 204.097 575.91 203.239 576.79C203.024 577.01 202.696 577.242 202.367 577.456C202.015 577.684 201.582 577.941 201.101 578.214C200.137 578.761 198.944 579.389 197.746 579.997C195.374 581.2 192.888 582.37 192.098 582.659C191.182 582.994 190.199 583.026 189.253 582.977C188.738 582.951 188.139 582.891 187.544 582.832C187.114 582.789 186.687 582.747 186.294 582.717C184.366 582.571 182.886 582.101 181.523 581.667L181.358 581.614C179.95 581.168 178.64 580.771 176.905 580.701C176.509 580.685 175.717 580.715 175 580.749ZM179.121 570.099C179.185 570.07 179.355 570.026 179.659 570.008C179.942 569.992 180.266 570.002 180.583 570.027C180.898 570.051 181.189 570.088 181.402 570.119C181.508 570.134 181.593 570.148 181.651 570.158C181.68 570.162 181.701 570.166 181.715 570.169L181.718 570.169L188.285 571.642L188.33 571.656C188.385 571.673 188.462 571.695 188.56 571.722C188.754 571.776 189.028 571.847 189.353 571.918C189.938 572.046 190.722 572.18 191.521 572.203C191.465 572.365 191.368 572.556 191.237 572.746C191.078 572.978 190.902 573.157 190.758 573.26C190.342 573.558 190.006 573.682 189.802 573.735C189.698 573.762 189.625 573.771 189.59 573.774L189.576 573.776L189.569 573.776L184.206 573.711L184.015 575.695L184.194 574.711L184.016 575.695L184.069 575.705L184.222 575.732C184.354 575.756 184.544 575.79 184.778 575.83C185.245 575.912 185.886 576.022 186.584 576.136C187.958 576.36 189.615 576.608 190.555 576.665C191.204 576.704 191.96 576.505 192.663 576.27C193.396 576.025 194.225 575.686 195.059 575.344C196.776 574.64 198.525 573.923 199.994 573.68C201.265 573.47 201.717 573.934 201.879 574.251C202.112 574.706 201.986 575.211 201.807 575.393C201.764 575.438 201.606 575.565 201.279 575.778C200.973 575.976 200.578 576.212 200.114 576.475C199.188 577 198.025 577.613 196.842 578.213C194.45 579.426 192.07 580.539 191.41 580.781C190.876 580.977 190.215 581.024 189.356 580.98C188.848 580.954 188.366 580.905 187.841 580.851C187.416 580.808 186.963 580.762 186.445 580.723C184.753 580.595 183.467 580.186 182.088 579.748L181.963 579.708C180.535 579.255 179.007 578.784 176.986 578.703C176.531 578.685 175.721 578.713 175 578.747V571.646C176.406 571.143 178.487 570.388 179.121 570.099ZM181.916 569.189L182.1 568.206C182.1 568.206 182.1 568.206 181.916 569.189ZM173 570.001H170V580.996H173V570.001Z" fill="black"/>
<defs>
<linearGradient id="paint0_linear_14_405" x1="43.2515" y1="174.468" x2="43.2515" y2="260.971" gradientUnits="userSpaceOnUse">
<stop stop-color="#2080C0"/>
<stop offset="0.447115" stop-color="#8BBCDD"/>
<stop offset="1" stop-color="#2080C0"/>
</linearGradient>
<linearGradient id="paint1_linear_14_405" x1="185.928" y1="522.168" x2="185.928" y2="608.671" gradientUnits="userSpaceOnUse">
<stop stop-color="#2080C0"/>
<stop offset="0.447115" stop-color="#8BBCDD"/>
<stop offset="1" stop-color="#2080C0"/>
</linearGradient>
<linearGradient id="paint2_linear_14_405" x1="54.541" y1="354.579" x2="54.541" y2="441.082" gradientUnits="userSpaceOnUse">
<stop stop-color="#2080C0"/>
<stop offset="0.447115" stop-color="#8BBCDD"/>
<stop offset="1" stop-color="#2080C0"/>
</linearGradient>
<linearGradient id="paint3_linear_14_405" x1="180.311" y1="0" x2="180.311" y2="86.503" gradientUnits="userSpaceOnUse">
<stop stop-color="#2080C0"/>
<stop offset="0.447115" stop-color="#8BBCDD"/>
<stop offset="1" stop-color="#2080C0"/>
</linearGradient>
</defs>
</svg>
