<svg width="117" height="340" viewBox="0 0 117 340" fill="none" xmlns="http://www.w3.org/2000/svg">
<path d="M96.386 16.9105C49.5203 50.4544 18.9785 105.35 18.9785 167.378C18.9785 229.407 49.5203 284.302 96.386 317.846" stroke="#8BBCDD" stroke-width="1.5"/>
<path d="M96.386 16.9105C49.5203 50.4544 18.9785 105.35 18.9785 167.378C18.9785 229.407 49.5203 284.302 96.386 317.846" stroke="url(#paint0_linear_14_405)" stroke-width="1.5"/>
<circle cx="26.7552" cy="120.625" r="25.7777" fill="white"/>
<circle cx="26.7552" cy="120.625" r="25.7777" stroke="url(#paint1_linear_14_405)" stroke-width="1.5"/>
<circle cx="26.7552" cy="120.625" r="25.7777" stroke="url(#paint2_linear_14_405)" stroke-width="1.5"/>
<circle cx="90.0275" cy="312.996" r="25.7777" fill="white"/>
<circle cx="90.0275" cy="312.996" r="25.7777" stroke="url(#paint3_linear_14_405)" stroke-width="1.5"/>
<circle cx="90.0275" cy="312.996" r="25.7777" stroke="url(#paint4_linear_14_405)" stroke-width="1.5"/>
<circle cx="31.6003" cy="223.976" r="25.7777" fill="white"/>
<circle cx="31.6003" cy="223.976" r="25.7777" stroke="url(#paint5_linear_14_405)" stroke-width="1.5"/>
<circle cx="31.6003" cy="223.976" r="25.7777" stroke="url(#paint6_linear_14_405)" stroke-width="1.5"/>
<path fill-rule="evenodd" clip-rule="evenodd" d="M21.3333 212C20.597 212 20 212.597 20 213.333V230.667C20 231.403 20.597 232 21.3333 232H31.3333V234.667H26.6667V236H37.3333V234.667H32.6667V232H42.6667C43.4031 232 44 231.403 44 230.667V213.333C44 212.597 43.4031 212 42.6667 212H21.3333ZM24 228.92L24.0001 228.909V228.475C24.0001 226.798 26.4871 225.219 28.8889 224.672C29.2789 224.583 29.2347 225.146 29.3334 225.333H31.1396C31.6804 225.333 32.2102 225.333 32.749 225.333H34.5553C34.6567 225.141 34.8877 224.621 35.1111 224.672C35.6131 224.787 36.1189 224.946 36.6049 225.142L36.6198 225.135L36.6246 225.144L36.6279 225.151C38.4569 225.894 40.0001 227.154 40.0001 228.475L40 230.667H42V214.667H22V230.667H24V228.92ZM26.3297 227.227C26.6855 226.967 27.1061 226.727 27.5606 226.521C27.5671 226.646 27.5795 226.771 27.5961 226.893C27.6265 227.116 27.6723 227.337 27.7279 227.527L27.7315 227.54C27.3587 227.776 27.1111 228.192 27.1111 228.667C27.1111 229.403 27.7081 230 28.4445 230C29.1808 230 29.7778 229.403 29.7778 228.667C29.7778 227.983 29.2636 227.42 28.6009 227.342C28.5945 227.322 28.5879 227.301 28.5812 227.278C28.5395 227.135 28.5021 226.958 28.4769 226.773C28.4539 226.605 28.4424 226.44 28.4447 226.296L28.5285 226.455H31.1397C31.5476 226.455 31.7461 226.455 31.945 226.455H31.9509C32.1473 226.455 32.346 226.455 32.7489 226.455H35.3601L35.5133 226.164C35.6325 226.202 35.7514 226.243 35.8693 226.287C35.8723 226.433 35.8608 226.602 35.8374 226.773C35.8122 226.958 35.7747 227.135 35.7331 227.278C35.7274 227.298 35.7218 227.316 35.7163 227.333H35.1111C34.9428 227.333 34.7889 227.428 34.7136 227.579L34.2691 228.468C34.2383 228.53 34.2222 228.598 34.2222 228.667V229.556C34.2222 229.801 34.4212 230 34.6667 230H35.5555V229.111H35.1111V228.772L35.3858 228.222H36.6142L36.8889 228.772V229.111H36.4445V230H37.3333C37.5788 230 37.7778 229.801 37.7778 229.556V228.667C37.7778 228.598 37.7617 228.53 37.7309 228.468L37.2864 227.579C37.2111 227.428 37.0572 227.333 36.8889 227.333H36.6372C36.6701 227.193 36.6977 227.044 36.7181 226.893C36.7283 226.819 36.7369 226.743 36.7435 226.667C37.2849 226.94 37.7485 227.252 38.0905 227.571C38.5784 228.026 38.6667 228.344 38.6667 228.475L38.6667 230.667H25.3333L25.3334 228.476C25.3334 228.293 25.509 227.826 26.3297 227.227ZM28.8889 228.667C28.8889 228.922 28.6837 229.118 28.4445 229.118C28.2051 229.118 28 228.922 28 228.667C28 228.411 28.2051 228.216 28.4445 228.216C28.6837 228.216 28.8889 228.411 28.8889 228.667ZM32 214C32.3682 214 32.6667 213.702 32.6667 213.333C32.6667 212.965 32.3682 212.667 32 212.667C31.6318 212.667 31.3333 212.965 31.3333 213.333C31.3333 213.702 31.6318 214 32 214Z" fill="black"/>
<path fill-rule="evenodd" clip-rule="evenodd" d="M32 222.667C33.4727 222.667 34.6667 221.473 34.6667 220C34.6667 218.527 33.4727 217.333 32 217.333C30.5273 217.333 29.3333 218.527 29.3333 220C29.3333 221.473 30.5273 222.667 32 222.667ZM32 224C34.2091 224 36 222.209 36 220C36 217.791 34.2091 216 32 216C29.7909 216 28 217.791 28 220C28 222.209 29.7909 224 32 224Z" fill="black"/>
<circle cx="90.0277" cy="26.6216" r="25.7777" fill="white"/>
<circle cx="90.0277" cy="26.6216" r="25.7777" stroke="url(#paint7_linear_14_405)" stroke-width="1.5"/>
<circle cx="90.0277" cy="26.6216" r="25.7777" stroke="url(#paint8_linear_14_405)" stroke-width="1.5"/>
<path fill-rule="evenodd" clip-rule="evenodd" d="M102 25.0002C102 30.5231 97.5228 35.0002 91.9999 35.0002C89.4785 35.0002 87.1749 34.067 85.4159 32.5271L84.1971 33.7459L84.2 35.6286L79.8856 39.9431L77.0571 37.1146L81.4063 32.7655L83.2112 32.8462L84.4731 31.5842C82.9332 29.8252 81.9999 27.5218 81.9999 25.0002C81.9999 19.4774 86.4771 15.0002 91.9999 15.0002C97.5228 15.0002 102 19.4774 102 25.0002ZM100.667 25.0002C100.667 29.7867 96.7864 33.6669 91.9999 33.6669C87.2135 33.6669 83.3333 29.7867 83.3333 25.0002C83.3333 20.2138 87.2135 16.3336 91.9999 16.3336C96.7864 16.3336 100.667 20.2138 100.667 25.0002ZM78.9427 37.1146L79.8856 38.0574L82.8658 35.0772L82.8644 34.1654L81.9337 34.1237L78.9427 37.1146Z" fill="black"/>
<path fill-rule="evenodd" clip-rule="evenodd" d="M20.3334 109C19.597 109 19 109.597 19 110.333V115.067C17.4785 115.376 16.3334 116.721 16.3334 118.333V129.667C16.3334 131.508 17.8258 133 19.6667 133H27.6667C29.0336 133 30.2083 132.177 30.7227 131H29.1574C28.7912 131.409 28.259 131.667 27.6667 131.667H19.6667C18.5621 131.667 17.6667 130.771 17.6667 129.667V129H24.3334C24.7016 129 25 128.702 25 128.333C25 127.965 24.7016 127.667 24.3334 127.667H17.6667V121.667H23C23.3682 121.667 23.6667 121.368 23.6667 121C23.6667 120.632 23.3682 120.333 23 120.333H17.6667V118.333C17.6667 117.229 18.5621 116.333 19.6667 116.333H27.6667C28.259 116.333 28.7912 116.591 29.1574 117H30.7227C30.2942 116.019 29.4076 115.285 28.3334 115.067V110.333C28.3334 109.597 27.7364 109 27 109H20.3334ZM27 110.333H20.3334V115H27V110.333Z" fill="black"/>
<path d="M31.6667 121C32.0349 121 32.3333 121.298 32.3333 121.667V123H33.6667C34.0349 123 34.3333 123.298 34.3333 123.667C34.3333 124.035 34.0349 124.333 33.6667 124.333H32.3333V125.667C32.3333 126.035 32.0349 126.333 31.6667 126.333C31.2985 126.333 31 126.035 31 125.667V124.333H29.6667C29.2985 124.333 29 124.035 29 123.667C29 123.298 29.2985 123 29.6667 123H31V121.667C31 121.298 31.2985 121 31.6667 121Z" fill="black"/>
<path fill-rule="evenodd" clip-rule="evenodd" d="M26.7732 127.459C27.9248 128.914 29.5334 129.928 31.3328 130.333C33.1325 129.928 34.7414 128.914 35.8932 127.459C37.045 126.004 37.6707 124.196 37.6667 122.332V119.933C37.6667 119.509 37.4999 119.102 37.203 118.802C36.9062 118.502 36.5036 118.333 36.0838 118.333H26.583C26.1632 118.333 25.7606 118.502 25.4637 118.802C25.1668 119.102 25 119.509 25 119.933V122.332C24.996 124.195 25.6216 126.004 26.7732 127.459ZM36.3334 122.332V122.335C36.3367 123.898 35.8116 125.414 34.8478 126.632C33.9472 127.769 32.7146 128.583 31.3329 128.96C29.9514 128.582 28.719 127.769 27.8186 126.632C26.8549 125.414 26.33 123.898 26.3334 122.335V119.933C26.3334 119.858 26.3631 119.789 26.4115 119.74C26.4594 119.691 26.5214 119.667 26.583 119.667H36.0838C36.1454 119.667 36.2074 119.691 36.2552 119.74C36.3036 119.789 36.3334 119.858 36.3334 119.933V122.332Z" fill="black"/>
<path fill-rule="evenodd" clip-rule="evenodd" d="M95.3333 306.229V315.132C95.3333 316.099 94.9681 316.866 94.3675 317.374C93.7814 317.869 93.0252 318.074 92.302 318.044C91.4657 318.009 90.5924 317.646 90.0059 316.968C89.8546 318.189 90.2906 319 90.4888 319.213L90.9421 319.702L89.9643 320.609L89.5111 320.12C88.9687 319.535 88.386 318.155 88.7588 316.354C88.1824 316.475 87.5776 316.473 87.0285 316.357C86.4307 316.23 85.8429 315.958 85.3972 315.5C84.941 315.032 84.6666 314.4 84.6666 313.639C84.6666 312.543 85.0583 311.751 85.7572 311.173C86.4043 310.637 87.2818 310.316 88.1697 310.029C88.3779 309.962 88.5906 309.895 88.8072 309.827C90.4996 309.295 92.4234 308.691 94.236 307.158L95.3333 306.229ZM90.6408 315.09C90.9214 314.576 91.3073 314.025 91.8288 313.446L92.2748 312.95L91.2837 312.058L90.8378 312.554C90.1775 313.288 89.6956 314 89.3544 314.677C88.8536 315.046 88.0466 315.21 87.3048 315.053C86.9026 314.967 86.5737 314.797 86.3527 314.57C86.1422 314.354 86 314.058 86 313.639C86 312.915 86.2333 312.509 86.6074 312.2C87.0331 311.847 87.6764 311.59 88.5802 311.297C88.7773 311.234 88.9836 311.169 89.198 311.102C90.5839 310.669 92.304 310.132 94 309.001V315.132C94 315.742 93.7818 316.123 93.5066 316.356C93.2168 316.601 92.8046 316.73 92.3577 316.711C91.4725 316.674 90.6846 316.096 90.6408 315.09Z" fill="black"/>
<path fill-rule="evenodd" clip-rule="evenodd" d="M90 324.333C89.71 324.934 89.7096 324.933 89.7096 324.933L89.7088 324.933L89.7064 324.932L89.6984 324.928L89.6698 324.914C89.645 324.902 89.6093 324.884 89.5632 324.86C89.4711 324.814 89.3378 324.745 89.169 324.654C88.8316 324.473 88.3524 324.205 87.7784 323.856C86.6318 323.157 85.1001 322.129 83.5652 320.809C80.5224 318.191 77.3334 314.309 77.3334 309.483C77.3334 307.314 78.0512 305.213 79.281 303.643C80.514 302.068 82.2883 301 84.375 301C86.853 301 88.734 302.405 90 304.385C91.266 302.405 93.147 301 95.625 301C97.712 301 99.4863 302.069 100.719 303.643C101.949 305.214 102.667 307.314 102.667 309.483C102.667 314.125 99.4721 318.008 96.4393 320.665C94.9067 322.007 93.3772 323.07 92.2323 323.796C91.6592 324.16 91.1806 324.441 90.844 324.631C90.6756 324.727 90.5426 324.8 90.4508 324.849C90.4049 324.874 90.3693 324.893 90.3448 324.905L90.3163 324.92L90.3084 324.924L90.3054 324.926C90.3054 324.926 90.3049 324.926 90 324.333ZM80.3308 304.465C79.2942 305.789 78.6667 307.596 78.6667 309.483C78.6667 313.711 81.4776 317.254 84.4348 319.798C85.9 321.058 87.3683 322.045 88.4717 322.717C89.0227 323.052 89.4809 323.308 89.7998 323.479C89.8707 323.517 89.9346 323.551 89.9912 323.581C90.049 323.549 90.1145 323.512 90.1874 323.471C90.5069 323.29 90.9659 323.021 91.5178 322.671C92.6228 321.969 94.0934 320.947 95.5608 319.662C98.528 317.063 101.333 313.52 101.333 309.483C101.333 307.596 100.706 305.789 99.6694 304.465C98.636 303.145 97.2229 302.333 95.625 302.333C93.4158 302.333 91.7056 303.778 90.5989 306.04L90 307.264L89.4012 306.04C88.2943 303.778 86.5842 302.333 84.375 302.333C82.7774 302.333 81.3642 303.145 80.3308 304.465Z" fill="black"/>
<path d="M89.9999 324.333L90.3053 324.926L90.0092 325.078L89.7095 324.933L89.9999 324.333Z" fill="black"/>
<defs>
<linearGradient id="paint0_linear_14_405" x1="76.0523" y1="16.9105" x2="-82.0288" y2="115.377" gradientUnits="userSpaceOnUse">
<stop stop-color="#DDAD80"/>
<stop offset="0.447115" stop-color="#FADFC6"/>
<stop offset="1" stop-color="#DDAD80"/>
</linearGradient>
<linearGradient id="paint1_linear_14_405" x1="26.7552" y1="94.0975" x2="26.7552" y2="147.153" gradientUnits="userSpaceOnUse">
<stop stop-color="#2080C0"/>
<stop offset="0.447115" stop-color="#8BBCDD"/>
<stop offset="1" stop-color="#2080C0"/>
</linearGradient>
<linearGradient id="paint2_linear_14_405" x1="39.3461" y1="94.0975" x2="17.4368" y2="147.153" gradientUnits="userSpaceOnUse">
<stop stop-color="#DDAD80"/>
<stop offset="0.447115" stop-color="#FADFC6"/>
<stop offset="1" stop-color="#DDAD80"/>
</linearGradient>
<linearGradient id="paint3_linear_14_405" x1="90.0275" y1="286.468" x2="90.0275" y2="339.524" gradientUnits="userSpaceOnUse">
<stop stop-color="#2080C0"/>
<stop offset="0.447115" stop-color="#8BBCDD"/>
<stop offset="1" stop-color="#2080C0"/>
</linearGradient>
<linearGradient id="paint4_linear_14_405" x1="102.618" y1="286.468" x2="80.7091" y2="339.524" gradientUnits="userSpaceOnUse">
<stop stop-color="#DDAD80"/>
<stop offset="0.447115" stop-color="#FADFC6"/>
<stop offset="1" stop-color="#DDAD80"/>
</linearGradient>
<linearGradient id="paint5_linear_14_405" x1="31.6003" y1="197.448" x2="31.6003" y2="250.503" gradientUnits="userSpaceOnUse">
<stop stop-color="#2080C0"/>
<stop offset="0.447115" stop-color="#8BBCDD"/>
<stop offset="1" stop-color="#2080C0"/>
</linearGradient>
<linearGradient id="paint6_linear_14_405" x1="44.1912" y1="197.448" x2="22.2819" y2="250.503" gradientUnits="userSpaceOnUse">
<stop stop-color="#DDAD80"/>
<stop offset="0.447115" stop-color="#FADFC6"/>
<stop offset="1" stop-color="#DDAD80"/>
</linearGradient>
<linearGradient id="paint7_linear_14_405" x1="90.0277" y1="0.0939331" x2="90.0277" y2="53.1493" gradientUnits="userSpaceOnUse">
<stop stop-color="#2080C0"/>
<stop offset="0.447115" stop-color="#8BBCDD"/>
<stop offset="1" stop-color="#2080C0"/>
</linearGradient>
<linearGradient id="paint8_linear_14_405" x1="102.619" y1="0.0939318" x2="80.7092" y2="53.1493" gradientUnits="userSpaceOnUse">
<stop stop-color="#DDAD80"/>
<stop offset="0.447115" stop-color="#FADFC6"/>
<stop offset="1" stop-color="#DDAD80"/>
</linearGradient>
</defs>
</svg>
