<svg width="303" height="328" viewBox="0 0 303 328" fill="none" xmlns="http://www.w3.org/2000/svg">
<path d="M151.474 186.754L131.448 170.299L140.443 159.351L142.259 160.843L134.911 169.786L142.092 175.686L149.195 167.042L151.011 168.534L143.908 177.178L151.306 183.257L158.654 174.314L160.469 175.806L151.474 186.754ZM163.596 172.402L145.233 154.11L154.515 144.792L156.18 146.45L148.729 153.929L155.364 160.538L162.542 153.332L164.207 154.991L157.029 162.197L165.428 170.563L163.596 172.402ZM175.777 160.534L159.242 140.574L170.153 131.534L171.652 133.344L162.739 140.728L168.669 147.885L177.285 140.747L178.784 142.557L170.168 149.695L176.276 157.068L185.189 149.684L186.688 151.494L175.777 160.534ZM190.442 148.804L176.448 126.987L181.585 123.692C185.659 121.079 188.342 120.066 191.339 120.061C195.688 120.021 199.338 122.138 201.914 126.153C204.584 130.316 204.855 134.767 202.643 138.853C201.416 141.098 199.475 143.009 196.317 145.036L190.442 148.804ZM191.358 145.425L194.398 143.474C198.384 140.918 200.278 138.869 201.084 136.228C201.932 133.392 201.423 130.26 199.643 127.485C197.503 124.149 194.169 122.329 190.595 122.538C188.413 122.646 186.13 123.569 182.942 125.614L179.901 127.564L191.358 145.425ZM217.404 122.036L228.101 127.692L225.183 129.069L212.27 122.17C215.125 120.823 216.493 120.023 217.453 119.182C219.391 117.453 219.754 115.265 218.542 112.695C217.524 110.538 215.888 109.372 213.942 109.359C212.389 109.355 210.62 109.879 208.146 111.047L204.847 112.604L214.906 133.919L212.558 135.026L201.497 111.586L207.302 108.847C210.505 107.335 212.715 106.758 214.595 106.879C217.382 107.115 219.589 108.75 220.936 111.604C222.912 115.791 221.683 119.435 217.404 122.036ZM229.77 126.959L232.37 98.8756L235.139 97.9795L253.73 119.207L251.027 120.081L244.768 112.927L233.289 116.641L232.373 126.117L229.77 126.959ZM233.5 114.103L243.077 111.005L234.678 101.225L233.5 114.103ZM266.222 116.634L262.612 90.9674L276.644 88.9939L276.971 91.3209L265.51 92.9329L266.804 102.137L277.884 100.578L278.211 102.905L267.131 104.464L268.465 113.945L279.926 112.333L280.254 114.66L266.222 116.634ZM284.857 114.273L283.743 88.3777L296.883 87.8119L296.984 90.1596L286.437 90.6138L286.839 99.9696L297.001 99.5321L297.102 101.88L286.941 102.317L287.451 114.161L284.857 114.273ZM301.857 113.796L303.222 87.9127L317.372 88.6588L317.248 91.0054L305.69 90.396L305.2 99.6775L316.373 100.267L316.25 102.613L305.077 102.024L304.573 111.586L316.131 112.195L316.007 114.542L301.857 113.796ZM320.589 115.107L325.076 89.5787L331.086 90.635C335.854 91.4728 338.514 92.5458 340.722 94.5719C343.948 97.4892 345.198 101.519 344.373 106.217C343.517 111.088 340.701 114.546 336.306 116.052C333.882 116.873 331.16 116.964 327.464 116.315L320.589 115.107ZM323.552 113.241L327.11 113.867C331.774 114.686 334.555 114.463 336.937 113.065C339.482 111.554 341.229 108.905 341.8 105.658C342.486 101.755 341.267 98.1575 338.496 95.89C336.819 94.4913 334.514 93.6234 330.783 92.9677L327.225 92.3424L323.552 113.241ZM358.549 113.663L362.601 125.064L359.52 124.104L354.677 110.289C357.691 111.228 359.239 111.564 360.516 111.594C363.112 111.631 364.86 110.266 365.705 107.553C366.415 105.276 365.999 103.31 364.575 101.985C363.434 100.931 361.776 100.121 359.164 99.3069L355.682 98.2219L348.671 120.724L346.193 119.952L353.903 95.2063L360.031 97.1156C363.413 98.1694 365.431 99.2389 366.733 100.6C368.626 102.659 369.145 105.356 368.206 108.369C366.829 112.79 363.46 114.642 358.549 113.663ZM364.326 125.654L385.24 106.732L387.886 107.946L387.214 136.155L384.632 134.971L384.863 125.468L373.897 120.437L366.813 126.794L364.326 125.654ZM375.77 118.71L384.919 122.908L385.351 110.025L375.77 118.71ZM406.195 148.174L422.038 127.66L433.253 136.321L431.816 138.181L422.656 131.106L416.975 138.462L425.83 145.301L424.393 147.161L415.538 140.322L409.686 147.9L418.846 154.975L417.41 156.835L406.195 148.174ZM420.906 159.855L438.624 140.937L448.224 149.928L446.617 151.643L438.912 144.426L432.511 151.261L439.934 158.214L438.328 159.929L430.904 152.976L422.801 161.629L420.906 159.855ZM433.142 171.666L452.597 154.54L461.96 165.176L460.196 166.729L452.548 158.041L445.572 164.182L452.964 172.58L451.201 174.133L443.808 165.735L436.621 172.061L444.268 180.749L442.504 182.302L433.142 171.666ZM445.305 185.974L466.696 171.337L470.143 176.374C472.876 180.368 473.968 183.021 474.063 186.016C474.232 190.362 472.224 194.074 468.287 196.767C464.206 199.56 459.765 199.964 455.615 197.873C453.334 196.714 451.366 194.831 449.247 191.734L445.305 185.974ZM448.71 186.789L450.75 189.77C453.424 193.678 455.528 195.51 458.193 196.237C461.052 197 464.168 196.398 466.889 194.537C470.16 192.299 471.88 188.912 471.564 185.346C471.392 183.168 470.402 180.914 468.263 177.788L466.223 174.806L448.71 186.789ZM472.87 212.114L467.545 222.98L466.079 220.105L472.578 206.987C474.012 209.799 474.855 211.141 475.725 212.076C477.512 213.959 479.711 214.255 482.241 212.965C484.366 211.881 485.482 210.21 485.435 208.265C485.391 206.712 484.813 204.96 483.57 202.523L481.912 199.274L460.916 209.982L459.737 207.67L482.827 195.894L485.743 201.612C487.352 204.767 487.997 206.958 487.934 208.841C487.783 211.634 486.217 213.89 483.405 215.324C479.281 217.427 475.602 216.312 472.87 212.114ZM468.329 224.626L496.479 226.369L497.459 229.11L476.808 248.338L475.851 245.663L482.811 239.189L478.749 227.828L469.25 227.202L468.329 224.626ZM481.292 227.962L484.681 237.44L494.2 228.748L481.292 227.962ZM481.485 270.313L507.226 267.279L508.885 281.351L506.551 281.626L505.196 270.132L495.966 271.22L497.275 282.331L494.941 282.606L493.632 271.495L484.123 272.615L485.477 284.11L483.144 284.385L481.485 270.313ZM483.429 288.996L509.342 288.457L509.616 301.607L507.266 301.655L507.047 291.101L497.684 291.296L497.896 301.465L495.546 301.514L495.335 291.345L483.483 291.591L483.429 288.996ZM483.527 306.002L509.373 307.946L508.311 322.076L505.967 321.899L506.835 310.358L497.567 309.661L496.728 320.818L494.385 320.641L495.224 309.485L485.676 308.766L484.808 320.308L482.465 320.132L483.527 306.002ZM481.798 324.701L507.219 329.756L506.028 335.742C505.084 340.489 503.952 343.125 501.877 345.287C498.888 348.447 494.831 349.607 490.153 348.677C485.303 347.712 481.909 344.82 480.501 340.392C479.735 337.951 479.704 335.227 480.436 331.546L481.798 324.701ZM483.596 327.704L482.891 331.248C481.968 335.892 482.129 338.677 483.473 341.09C484.927 343.668 487.536 345.474 490.769 346.117C494.657 346.89 498.28 345.751 500.609 343.032C502.045 341.386 502.964 339.102 503.703 335.387L504.408 331.844L483.596 327.704ZM482.392 362.683L470.902 366.478L471.931 363.42L485.852 358.888C484.845 361.88 484.475 363.42 484.416 364.696C484.32 367.291 485.646 369.069 488.339 369.975C490.6 370.735 492.575 370.363 493.932 368.969C495.011 367.852 495.858 366.213 496.73 363.62L497.893 360.163L475.554 352.649L476.381 350.189L500.948 358.452L498.902 364.535C497.772 367.893 496.658 369.886 495.268 371.158C493.167 373.004 490.459 373.463 487.467 372.457C483.079 370.981 481.303 367.571 482.392 362.683ZM470.274 368.19L488.721 389.524L487.448 392.142L459.261 390.836L460.504 388.281L469.999 388.726L475.275 377.876L469.078 370.65L470.274 368.19ZM476.959 379.787L472.557 388.839L485.427 389.56L476.959 379.787ZM446.816 409.541L466.971 425.838L458.062 436.856L456.235 435.379L463.512 426.379L456.285 420.535L449.25 429.235L447.423 427.757L454.457 419.057L447.012 413.037L439.734 422.037L437.907 420.56L446.816 409.541ZM434.809 423.987L453.323 442.127L444.118 451.522L442.439 449.877L449.828 442.337L443.139 435.783L436.02 443.048L434.342 441.403L441.46 434.138L432.993 425.841L434.809 423.987ZM422.726 435.955L439.415 455.786L428.573 464.909L427.06 463.111L435.916 455.659L429.931 448.548L421.371 455.752L419.858 453.954L428.418 446.75L422.253 439.424L413.397 446.876L411.884 445.078L422.726 435.955ZM408.151 447.796L422.306 469.509L417.193 472.842C413.139 475.485 410.463 476.517 407.466 476.545C403.117 476.617 399.452 474.527 396.847 470.531C394.146 466.388 393.842 461.939 396.024 457.837C397.234 455.583 399.161 453.657 402.305 451.607L408.151 447.796ZM407.261 451.182L404.234 453.155C400.268 455.74 398.388 457.803 397.602 460.45C396.775 463.292 397.307 466.42 399.108 469.182C401.272 472.502 404.62 474.298 408.192 474.062C410.373 473.939 412.649 472.999 415.822 470.93L418.848 468.958L407.261 451.182ZM381.4 474.768L370.657 469.201L373.564 467.8L386.532 474.592C383.689 475.962 382.328 476.774 381.375 477.623C379.451 479.368 379.106 481.559 380.339 484.118C381.375 486.266 383.021 487.42 384.966 487.416C386.519 487.408 388.284 486.868 390.748 485.68L394.034 484.097L383.8 462.865L386.138 461.738L397.393 485.086L391.611 487.873C388.42 489.412 386.215 490.007 384.334 489.901C381.545 489.689 379.325 488.072 377.955 485.229C375.944 481.058 377.142 477.405 381.4 474.768ZM368.994 469.948L366.619 498.051L363.857 498.969L345.097 477.891L347.793 476.995L354.109 484.099L365.558 480.293L366.398 470.811L368.994 469.948ZM365.367 482.833L355.815 486.008L364.292 495.72L365.367 482.833ZM323.022 482.073L325.479 507.876L311.373 509.219L311.15 506.879L322.672 505.782L321.791 496.53L310.653 497.59L310.43 495.251L321.568 494.19L320.661 484.659L309.139 485.756L308.916 483.416L323.022 482.073ZM304.3 483.598L304.263 509.517L291.111 509.499L291.114 507.149L301.671 507.164L301.684 497.799L291.513 497.785L291.516 495.435L301.688 495.449L301.704 483.595L304.3 483.598ZM287.296 483.319L284.774 509.115L270.671 507.736L270.9 505.397L282.419 506.523L283.324 497.273L272.188 496.184L272.417 493.846L283.552 494.934L284.484 485.405L272.965 484.279L273.194 481.94L287.296 483.319ZM268.641 481.171L263.018 506.472L257.06 505.148C252.336 504.098 249.726 502.908 247.611 500.785C244.518 497.726 243.449 493.644 244.484 488.988C245.557 484.16 248.524 480.832 252.983 479.523C255.44 478.812 258.164 478.842 261.828 479.656L268.641 481.171ZM265.598 482.902L262.071 482.118C257.449 481.091 254.661 481.189 252.218 482.479C249.609 483.875 247.744 486.443 247.029 489.661C246.169 493.53 247.227 497.178 249.893 499.567C251.506 501.04 253.77 502.01 257.468 502.832L260.994 503.615L265.598 482.902ZM230.655 480.914L227.118 469.343L230.153 470.44L234.371 484.458C231.403 483.385 229.871 482.981 228.597 482.893C226.005 482.739 224.198 484.025 223.232 486.697C222.421 488.94 222.748 490.923 224.111 492.311C225.204 493.414 226.824 494.298 229.397 495.228L232.827 496.468L240.84 474.303L243.281 475.185L234.469 499.561L228.433 497.378C225.101 496.174 223.133 495.015 221.893 493.597C220.094 491.455 219.697 488.738 220.77 485.769C222.344 481.416 225.793 479.716 230.655 480.914ZM225.421 468.677L203.678 486.639L201.089 485.307L203.028 457.157L205.554 458.456L204.896 467.939L215.625 473.458L222.988 467.425L225.421 468.677ZM213.677 475.099L204.726 470.494L203.715 483.345L213.677 475.099ZM184.607 444.293L167.866 464.081L157.049 454.929L158.566 453.135L167.402 460.61L173.406 453.515L164.864 446.288L166.382 444.494L174.923 451.721L181.108 444.411L172.272 436.935L173.79 435.141L184.607 444.293ZM170.43 431.968L151.889 450.08L142.699 440.671L144.38 439.029L151.757 446.581L158.456 440.037L151.348 432.761L153.029 431.119L160.137 438.395L168.617 430.112L170.43 431.968ZM158.733 419.623L138.523 435.852L129.652 424.804L131.484 423.332L138.731 432.357L145.978 426.538L138.972 417.814L140.805 416.342L147.81 425.066L155.276 419.071L148.029 410.047L149.861 408.575L158.733 419.623ZM147.228 404.782L125.206 418.45L121.988 413.265C119.435 409.152 118.462 406.454 118.501 403.457C118.526 399.108 120.698 395.49 124.75 392.974C128.952 390.366 133.407 390.161 137.459 392.434C139.686 393.694 141.569 395.663 143.548 398.852L147.228 404.782ZM143.863 403.816L141.958 400.746C139.461 396.723 137.441 394.799 134.811 393.954C131.989 393.064 128.849 393.526 126.048 395.265C122.681 397.355 120.811 400.661 120.968 404.238C121.042 406.421 121.931 408.718 123.929 411.936L125.834 415.005L143.863 403.816ZM120.86 377.432L126.669 366.818L128.004 369.755L120.921 382.567C119.615 379.693 118.834 378.315 118.007 377.342C116.306 375.38 114.123 374.985 111.537 376.16C109.366 377.147 108.176 378.767 108.135 380.711C108.109 382.264 108.608 384.041 109.74 386.531L111.249 389.852L132.706 380.101L133.78 382.464L110.183 393.187L107.528 387.344C106.062 384.119 105.516 381.901 105.665 380.023C105.941 377.24 107.607 375.057 110.481 373.751C114.695 371.836 118.321 373.116 120.86 377.432ZM125.96 365.138L97.9181 362.128L97.0625 359.346L118.559 341.067L119.394 343.783L112.149 349.937L115.695 361.469L125.156 362.523L125.96 365.138ZM113.161 361.221L110.202 351.6L100.301 359.855L113.161 361.221ZM114.864 318.906L89.0122 320.777L87.989 306.645L90.3328 306.475L91.1685 318.019L100.439 317.348L99.6308 306.189L101.975 306.019L102.782 317.178L112.332 316.487L111.497 304.943L113.84 304.773L114.864 318.906ZM113.762 300.153L87.8498 299.543L88.1594 286.394L90.5087 286.45L90.2601 297.004L99.6221 297.224L99.8616 287.056L102.211 287.111L101.971 297.28L113.823 297.559L113.762 300.153ZM114.418 283.16L88.6853 280.06L90.3799 265.992L92.7129 266.273L91.3287 277.764L100.556 278.876L101.894 267.768L104.228 268.049L102.889 279.157L112.396 280.302L113.78 268.811L116.113 269.092L114.418 283.16ZM116.984 264.558L91.8141 258.37L93.271 252.444C94.4265 247.744 95.6753 245.161 97.8449 243.094C100.972 240.071 105.077 239.093 109.709 240.232C114.511 241.413 117.773 244.454 118.981 248.94C119.637 251.413 119.546 254.136 118.65 257.78L116.984 264.558ZM115.321 261.476L116.184 257.968C117.314 253.37 117.278 250.58 116.043 248.11C114.706 245.469 112.18 243.548 108.979 242.761C105.13 241.815 101.459 242.791 99.0109 245.403C97.5029 246.983 96.4824 249.224 95.5781 252.903L94.7156 256.411L115.321 261.476ZM118.091 226.587L129.739 223.311L128.575 226.32L114.465 230.222C115.604 227.279 116.043 225.756 116.159 224.485C116.371 221.897 115.126 220.061 112.477 219.035C110.253 218.174 108.263 218.457 106.845 219.788C105.717 220.856 104.797 222.456 103.809 225.007L102.492 228.408L124.472 236.917L123.535 239.338L99.364 229.98L101.681 223.995C102.96 220.691 104.163 218.75 105.608 217.542C107.79 215.792 110.516 215.455 113.459 216.595C117.777 218.266 119.398 221.752 118.091 226.587ZM130.444 221.628L112.982 199.481L114.373 196.923L142.472 199.504L141.115 202L131.649 201.126L125.887 211.726L131.75 219.225L130.444 221.628ZM124.291 209.741L129.099 200.897L116.274 199.594L124.291 209.741Z" fill="#AF8C6C"/>
<path d="M208.1 225.567L190.239 210.891L198.262 201.126L199.881 202.457L193.328 210.433L199.733 215.696L206.068 207.985L207.687 209.316L201.352 217.026L207.951 222.448L214.504 214.472L216.123 215.802L208.1 225.567ZM218.912 212.766L202.534 196.451L210.812 188.14L212.297 189.62L205.652 196.291L211.57 202.185L217.972 195.758L219.457 197.237L213.054 203.664L220.546 211.126L218.912 212.766ZM229.776 202.181L215.028 184.379L224.76 176.316L226.097 177.93L218.148 184.516L223.436 190.899L231.121 184.533L232.458 186.147L224.773 192.513L230.222 199.09L238.171 192.504L239.508 194.118L229.776 202.181ZM242.856 191.719L230.374 172.261L234.956 169.322C238.59 166.991 240.983 166.088 243.656 166.083C247.535 166.047 250.791 167.936 253.088 171.517C255.469 175.229 255.711 179.199 253.738 182.843C252.644 184.846 250.913 186.551 248.096 188.358L242.856 191.719ZM243.673 188.705L246.385 186.965C249.939 184.685 251.629 182.858 252.348 180.502C253.104 177.973 252.65 175.179 251.062 172.704C249.154 169.729 246.18 168.106 242.992 168.292C241.047 168.388 239.01 169.211 236.167 171.035L233.454 172.775L243.673 188.705ZM266.903 167.844L276.444 172.889L273.841 174.117L262.325 167.964C264.871 166.763 266.091 166.049 266.947 165.299C268.676 163.757 269 161.805 267.919 159.513C267.011 157.59 265.551 156.549 263.816 156.537C262.431 156.534 260.853 157.002 258.646 158.043L255.704 159.432L264.675 178.443L262.582 179.431L252.716 158.524L257.893 156.081C260.751 154.733 262.722 154.218 264.398 154.326C266.884 154.536 268.852 155.994 270.054 158.54C271.816 162.275 270.72 165.524 266.903 167.844ZM277.933 172.235L280.252 147.187L282.722 146.388L299.303 165.321L296.892 166.101L291.31 159.72L281.071 163.033L280.255 171.484L277.933 172.235ZM281.26 160.769L289.801 158.005L282.311 149.283L281.26 160.769ZM310.445 163.026L307.225 140.134L319.74 138.374L320.032 140.449L309.809 141.887L310.964 150.096L320.846 148.706L321.138 150.782L311.256 152.172L312.445 160.628L322.668 159.191L322.96 161.266L310.445 163.026ZM327.066 160.92L326.072 137.824L337.791 137.32L337.882 139.414L328.474 139.819L328.834 148.163L337.897 147.773L337.987 149.867L328.924 150.257L329.379 160.821L327.066 160.92ZM342.228 160.495L343.445 137.409L356.065 138.075L355.955 140.168L345.646 139.624L345.21 147.903L355.175 148.428L355.064 150.521L345.099 149.996L344.65 158.524L354.958 159.067L354.848 161.16L342.228 160.495ZM358.936 161.664L362.937 138.895L368.298 139.838C372.55 140.585 374.923 141.542 376.892 143.349C379.769 145.951 380.885 149.545 380.148 153.735C379.385 158.08 376.873 161.164 372.953 162.508C370.792 163.239 368.363 163.321 365.067 162.741L358.936 161.664ZM361.578 160L364.752 160.558C368.911 161.289 371.392 161.09 373.516 159.843C375.786 158.495 377.345 156.133 377.854 153.237C378.466 149.755 377.378 146.547 374.906 144.525C373.411 143.277 371.355 142.503 368.028 141.918L364.854 141.36L361.578 160ZM392.792 160.376L396.405 170.545L393.658 169.689L389.339 157.367C392.027 158.204 393.408 158.504 394.546 158.531C396.862 158.564 398.421 157.346 399.175 154.927C399.808 152.896 399.437 151.142 398.167 149.96C397.149 149.021 395.67 148.298 393.341 147.572L390.235 146.604L383.981 166.674L381.771 165.985L388.648 143.915L394.113 145.618C397.13 146.557 398.93 147.511 400.091 148.725C401.78 150.562 402.243 152.967 401.405 155.655C400.177 159.597 397.172 161.249 392.792 160.376ZM397.944 171.071L416.598 154.195L418.958 155.278L418.359 180.437L416.056 179.381L416.262 170.905L406.481 166.418L400.162 172.088L397.944 171.071ZM408.151 164.878L416.311 168.622L416.696 157.131L408.151 164.878ZM435.288 191.157L449.418 172.86L459.421 180.585L458.14 182.244L449.969 175.934L444.902 182.495L452.8 188.595L451.519 190.253L443.621 184.154L438.401 190.913L446.572 197.223L445.29 198.881L435.288 191.157ZM448.409 201.575L464.212 184.702L472.774 192.721L471.341 194.251L464.469 187.814L458.759 193.91L465.38 200.112L463.948 201.642L457.326 195.44L450.099 203.157L448.409 201.575ZM459.322 212.109L476.675 196.835L485.025 206.321L483.452 207.706L476.631 199.957L470.408 205.435L477.002 212.925L475.429 214.31L468.835 206.819L462.425 212.462L469.246 220.211L467.673 221.596L459.322 212.109ZM470.171 224.871L489.25 211.817L492.323 216.309C494.761 219.871 495.736 222.237 495.82 224.909C495.971 228.785 494.18 232.095 490.669 234.498C487.029 236.988 483.068 237.349 479.366 235.484C477.332 234.45 475.576 232.771 473.686 230.008L470.171 224.871ZM473.208 225.598L475.027 228.257C477.412 231.742 479.289 233.377 481.665 234.025C484.216 234.706 486.995 234.169 489.421 232.508C492.339 230.512 493.873 227.492 493.591 224.311C493.438 222.369 492.555 220.358 490.647 217.57L488.827 214.911L473.208 225.598ZM494.756 248.185L490.007 257.877L488.699 255.313L494.496 243.613C495.775 246.121 496.526 247.318 497.302 248.151C498.896 249.831 500.857 250.095 503.114 248.944C505.009 247.978 506.005 246.487 505.963 244.752C505.924 243.368 505.408 241.805 504.299 239.631L502.821 236.733L484.094 246.284L483.043 244.222L503.636 233.719L506.237 238.818C507.673 241.633 508.248 243.587 508.191 245.266C508.057 247.757 506.66 249.769 504.152 251.048C500.474 252.924 497.192 251.929 494.756 248.185ZM490.706 259.345L515.813 260.899L516.687 263.344L498.268 280.494L497.415 278.108L503.622 272.334L500 262.201L491.528 261.642L490.706 259.345ZM502.268 262.32L505.291 270.774L513.781 263.021L502.268 262.32ZM502.44 300.093L525.398 297.387L526.878 309.939L524.796 310.184L523.588 299.932L515.355 300.902L516.523 310.812L514.442 311.058L513.274 301.147L504.792 302.147L506.001 312.399L503.919 312.645L502.44 300.093ZM504.173 316.757L527.286 316.276L527.53 328.005L525.434 328.048L525.238 318.634L516.888 318.808L517.077 327.878L514.981 327.922L514.793 318.852L504.221 319.072L504.173 316.757ZM504.261 331.925L527.314 333.659L526.366 346.261L524.276 346.104L525.05 335.81L516.784 335.188L516.035 345.139L513.945 344.982L514.694 335.031L506.178 334.39L505.404 344.684L503.314 344.527L504.261 331.925ZM502.719 348.602L525.392 353.112L524.33 358.45C523.488 362.684 522.479 365.035 520.628 366.963C517.962 369.782 514.344 370.817 510.171 369.987C505.845 369.126 502.818 366.547 501.562 362.597C500.879 360.42 500.851 357.991 501.504 354.708L502.719 348.602ZM504.323 351.282L503.694 354.442C502.871 358.584 503.014 361.068 504.213 363.22C505.51 365.519 507.837 367.13 510.721 367.704C514.188 368.394 517.42 367.378 519.497 364.952C520.777 363.485 521.597 361.447 522.256 358.133L522.885 354.973L504.323 351.282ZM503.249 382.479L493.001 385.864L493.919 383.136L506.334 379.094C505.437 381.762 505.107 383.137 505.054 384.274C504.969 386.589 506.152 388.175 508.553 388.982C510.569 389.661 512.331 389.329 513.541 388.086C514.504 387.089 515.259 385.627 516.037 383.315L517.074 380.231L497.15 373.529L497.888 371.335L519.799 378.705L517.974 384.131C516.967 387.126 515.973 388.904 514.733 390.038C512.859 391.685 510.444 392.094 507.776 391.196C503.862 389.88 502.277 386.839 503.249 382.479ZM492.441 387.39L508.894 406.418L507.758 408.753L482.618 407.589L483.727 405.31L492.195 405.707L496.901 396.03L491.374 389.585L492.441 387.39ZM498.403 397.734L494.477 405.808L505.956 406.451L498.403 397.734ZM471.519 424.272L489.495 438.808L481.549 448.635L479.919 447.317L486.41 439.29L479.963 434.078L473.689 441.837L472.059 440.52L478.334 432.76L471.693 427.39L465.202 435.418L463.573 434.1L471.519 424.272ZM460.81 437.157L477.322 453.336L469.112 461.715L467.615 460.248L474.205 453.523L468.239 447.677L461.89 454.157L460.393 452.69L466.742 446.211L459.189 438.811L460.81 437.157ZM450.032 447.831L464.917 465.518L455.247 473.656L453.898 472.052L461.796 465.405L456.459 459.063L448.824 465.488L447.474 463.884L455.109 457.459L449.611 450.925L441.712 457.572L440.363 455.968L450.032 447.831ZM437.033 458.392L449.658 477.758L445.098 480.731C441.481 483.088 439.095 484.009 436.422 484.034C432.543 484.098 429.274 482.233 426.95 478.67C424.542 474.975 424.27 471.007 426.217 467.348C427.296 465.337 429.014 463.62 431.818 461.792L437.033 458.392ZM436.238 461.412L433.539 463.172C430.002 465.478 428.325 467.317 427.624 469.679C426.887 472.214 427.361 475.004 428.967 477.467C430.897 480.428 433.883 482.029 437.069 481.819C439.014 481.709 441.044 480.871 443.875 479.026L446.574 477.266L436.238 461.412ZM413.174 482.449L403.592 477.483L406.184 476.234L417.751 482.291C415.215 483.514 414.001 484.238 413.151 484.995C411.435 486.551 411.127 488.506 412.227 490.788C413.151 492.704 414.619 493.733 416.354 493.73C417.739 493.722 419.313 493.241 421.511 492.182L424.442 490.769L415.314 471.833L417.399 470.827L427.437 491.652L422.281 494.138C419.435 495.509 417.468 496.041 415.79 495.946C413.303 495.756 411.323 494.315 410.1 491.779C408.307 488.059 409.376 484.8 413.174 482.449ZM402.108 478.149L399.991 503.215L397.527 504.034L380.795 485.234L383.199 484.435L388.833 490.771L399.044 487.376L399.793 478.919L402.108 478.149ZM398.874 489.641L390.355 492.474L397.915 501.136L398.874 489.641ZM361.106 488.964L363.297 511.978L350.716 513.176L350.517 511.089L360.794 510.111L360.008 501.858L350.074 502.804L349.875 500.718L359.809 499.772L359 491.27L348.723 492.249L348.525 490.162L361.106 488.964ZM344.407 490.325L344.374 513.442L332.644 513.426L332.647 511.33L342.063 511.343L342.074 502.991L333.002 502.978L333.005 500.882L342.077 500.895L342.092 490.321L344.407 490.325ZM329.241 490.075L326.992 513.083L314.414 511.853L314.618 509.767L324.892 510.772L325.699 502.521L315.767 501.55L315.971 499.464L325.903 500.435L326.734 491.936L316.46 490.931L316.664 488.845L329.241 490.075ZM312.603 488.16L307.587 510.726L302.274 509.546C298.06 508.609 295.732 507.547 293.846 505.654C291.087 502.925 290.134 499.285 291.057 495.132C292.014 490.826 294.66 487.857 298.637 486.69C300.829 486.056 303.258 486.083 306.526 486.809L312.603 488.16ZM309.888 489.703L306.743 489.004C302.62 488.088 300.133 488.176 297.955 489.326C295.627 490.572 293.965 492.862 293.327 495.732C292.56 499.183 293.503 502.437 295.882 504.568C297.32 505.881 299.339 506.746 302.637 507.479L305.782 508.178L309.888 489.703ZM278.723 487.931L275.568 477.61L278.275 478.589L282.037 491.092C279.39 490.135 278.023 489.774 276.887 489.696C274.575 489.559 272.963 490.705 272.102 493.088C271.379 495.089 271.671 496.858 272.886 498.095C273.861 499.08 275.306 499.868 277.6 500.698L280.66 501.804L287.807 482.034L289.984 482.821L282.124 504.562L276.741 502.615C273.769 501.541 272.014 500.508 270.908 499.243C269.304 497.332 268.949 494.909 269.906 492.261C271.31 488.378 274.386 486.862 278.723 487.931ZM274.055 477.016L254.662 493.037L252.353 491.849L254.082 466.742L256.335 467.901L255.749 476.358L265.318 481.281L271.885 475.9L274.055 477.016ZM263.58 482.744L255.597 478.637L254.695 490.099L263.58 482.744ZM237.652 455.269L222.721 472.917L213.073 464.755L214.427 463.154L222.308 469.822L227.662 463.493L220.044 457.048L221.397 455.448L229.016 461.893L234.531 455.374L226.65 448.706L228.004 447.106L237.652 455.269ZM225.008 444.276L208.471 460.43L200.274 452.038L201.773 450.573L208.353 457.309L214.328 451.473L207.989 444.983L209.488 443.519L215.827 450.008L223.391 442.62L225.008 444.276ZM214.575 433.266L196.55 447.74L188.637 437.886L190.271 436.574L196.735 444.623L203.199 439.432L196.95 431.652L198.585 430.339L204.833 438.12L211.492 432.773L205.028 424.724L206.662 423.412L214.575 433.266ZM204.314 420.028L184.672 432.219L181.801 427.594C179.525 423.926 178.657 421.519 178.692 418.847C178.714 414.967 180.651 411.74 184.266 409.497C188.013 407.171 191.986 406.988 195.601 409.015C197.587 410.139 199.266 411.895 201.031 414.739L204.314 420.028ZM201.312 419.166L199.613 416.429C197.386 412.841 195.584 411.124 193.239 410.371C190.721 409.577 187.921 409.989 185.423 411.54C182.42 413.404 180.752 416.353 180.892 419.543C180.958 421.49 181.751 423.538 183.533 426.409L185.232 429.147L201.312 419.166ZM180.796 395.635L185.977 386.168L187.168 388.788L180.85 400.215C179.685 397.652 178.989 396.422 178.251 395.555C176.734 393.804 174.787 393.452 172.48 394.5C170.544 395.381 169.482 396.825 169.446 398.56C169.423 399.945 169.868 401.529 170.877 403.751L172.223 406.712L191.361 398.015L192.319 400.122L171.273 409.687L168.904 404.475C167.597 401.599 167.111 399.621 167.243 397.946C167.489 395.463 168.975 393.516 171.538 392.352C175.297 390.643 178.531 391.785 180.796 395.635ZM185.344 384.669L160.334 381.985L159.57 379.504L178.743 363.201L179.488 365.623L173.026 371.111L176.189 381.397L184.627 382.337L185.344 384.669ZM173.928 381.176L171.29 372.595L162.459 379.957L173.928 381.176ZM175.447 343.435L152.39 345.104L151.478 332.499L153.568 332.348L154.313 342.644L162.582 342.045L161.861 332.092L163.951 331.941L164.672 341.894L173.19 341.277L172.444 330.981L174.535 330.83L175.447 343.435ZM174.464 326.709L151.353 326.165L151.629 314.437L153.725 314.487L153.503 323.9L161.853 324.097L162.067 315.027L164.162 315.077L163.948 324.146L174.519 324.395L174.464 326.709ZM175.05 311.553L152.098 308.788L153.61 296.241L155.691 296.491L154.456 306.74L162.686 307.732L163.88 297.824L165.961 298.075L164.767 307.982L173.246 309.004L174.481 298.755L176.561 299.005L175.05 311.553ZM177.338 294.961L154.889 289.442L156.188 284.157C157.219 279.964 158.333 277.661 160.268 275.818C163.057 273.121 166.718 272.249 170.849 273.265C175.133 274.318 178.042 277.03 179.119 281.032C179.705 283.237 179.623 285.666 178.824 288.916L177.338 294.961ZM175.855 292.213L176.625 289.084C177.633 284.983 177.6 282.495 176.499 280.291C175.306 277.936 173.054 276.223 170.198 275.521C166.766 274.677 163.491 275.547 161.308 277.877C159.963 279.286 159.053 281.285 158.246 284.566L157.477 287.695L175.855 292.213ZM178.326 261.094L188.715 258.173L187.676 260.856L175.091 264.337C176.108 261.712 176.499 260.354 176.603 259.22C176.792 256.911 175.681 255.274 173.318 254.359C171.335 253.591 169.56 253.843 168.295 255.031C167.289 255.983 166.468 257.41 165.588 259.685L164.413 262.719L184.017 270.308L183.181 272.467L161.623 264.121L163.689 258.783C164.83 255.836 165.903 254.105 167.192 253.027C169.138 251.466 171.569 251.166 174.195 252.182C178.045 253.673 179.492 256.782 178.326 261.094ZM189.343 256.672L173.769 236.918L175.009 234.637L200.071 236.939L198.86 239.165L190.418 238.386L185.279 247.84L190.508 254.528L189.343 256.672ZM183.856 246.069L188.144 238.182L176.705 237.019L183.856 246.069Z" fill="#AF8C6C"/>
<path d="M262.747 275.482L247.572 263.013L254.388 254.717L255.764 255.847L250.196 262.624L255.638 267.095L261.021 260.545L262.396 261.675L257.014 268.226L262.62 272.832L268.188 266.055L269.564 267.186L262.747 275.482ZM271.933 264.607L258.018 250.745L265.052 243.684L266.313 244.941L260.667 250.608L265.695 255.617L271.134 250.156L272.396 251.413L266.957 256.873L273.321 263.213L271.933 264.607ZM281.164 255.613L268.634 240.488L276.902 233.637L278.038 235.009L271.284 240.604L275.778 246.028L282.307 240.619L283.443 241.99L276.914 247.399L281.542 252.987L288.297 247.391L289.433 248.763L281.164 255.613ZM292.277 246.724L281.672 230.192L285.565 227.695C288.652 225.715 290.686 224.947 292.956 224.943C296.253 224.913 299.018 226.517 300.97 229.56C302.993 232.714 303.199 236.087 301.522 239.183C300.593 240.885 299.122 242.333 296.729 243.869L292.277 246.724ZM292.971 244.164L295.275 242.686C298.295 240.748 299.731 239.196 300.341 237.194C300.984 235.045 300.598 232.672 299.249 230.569C297.628 228.041 295.101 226.662 292.392 226.82C290.74 226.902 289.009 227.601 286.593 229.151L284.289 230.629L292.971 244.164ZM312.708 226.44L320.814 230.726L318.603 231.769L308.818 226.541C310.982 225.521 312.018 224.914 312.746 224.277C314.214 222.967 314.49 221.308 313.571 219.361C312.799 217.727 311.559 216.843 310.085 216.833C308.908 216.83 307.568 217.228 305.693 218.112L303.193 219.292L310.815 235.444L309.037 236.284L300.654 218.521L305.053 216.445C307.481 215.3 309.155 214.862 310.58 214.954C312.692 215.133 314.364 216.372 315.385 218.535C316.882 221.708 315.951 224.468 312.708 226.44ZM322.08 230.17L324.049 208.889L326.148 208.21L340.236 224.296L338.188 224.958L333.445 219.537L324.746 222.352L324.052 229.532L322.08 230.17ZM324.906 220.428L332.163 218.08L325.799 210.669L324.906 220.428ZM349.702 222.346L346.967 202.896L357.6 201.401L357.848 203.164L349.163 204.386L350.144 211.36L358.539 210.179L358.787 211.943L350.392 213.124L351.402 220.309L360.087 219.087L360.335 220.851L349.702 222.346ZM363.824 220.557L362.979 200.934L372.937 200.505L373.013 202.284L365.021 202.628L365.326 209.718L373.027 209.386L373.103 211.165L365.403 211.497L365.789 220.472L363.824 220.557ZM376.706 220.195L377.741 200.581L388.463 201.147L388.369 202.925L379.611 202.463L379.24 209.497L387.707 209.943L387.613 211.721L379.146 211.275L378.764 218.521L387.523 218.982L387.429 220.761L376.706 220.195ZM390.902 221.189L394.302 201.844L398.856 202.644C402.469 203.279 404.485 204.092 406.158 205.628C408.603 207.838 409.55 210.892 408.925 214.452C408.276 218.143 406.142 220.764 402.811 221.905C400.975 222.527 398.912 222.596 396.111 222.104L390.902 221.189ZM393.147 219.775L395.843 220.249C399.377 220.87 401.485 220.701 403.29 219.642C405.218 218.497 406.543 216.489 406.975 214.029C407.495 211.071 406.571 208.345 404.471 206.626C403.2 205.567 401.454 204.909 398.627 204.412L395.93 203.938L393.147 219.775ZM419.667 220.094L422.737 228.735L420.403 228.007L416.733 217.538C419.017 218.249 420.19 218.504 421.157 218.527C423.125 218.555 424.45 217.52 425.09 215.465C425.628 213.739 425.313 212.249 424.234 211.245C423.369 210.447 422.113 209.832 420.133 209.216L417.494 208.393L412.181 225.445L410.303 224.86L416.146 206.108L420.79 207.555C423.353 208.354 424.882 209.164 425.869 210.196C427.304 211.756 427.697 213.8 426.985 216.083C425.942 219.433 423.389 220.836 419.667 220.094ZM424.045 229.181L439.893 214.843L441.898 215.763L441.389 237.139L439.433 236.241L439.608 229.04L431.298 225.228L425.929 230.046L424.045 229.181ZM432.717 223.919L439.65 227.1L439.977 217.337L432.717 223.919ZM455.773 246.247L467.779 230.702L476.277 237.265L475.188 238.674L468.247 233.313L463.942 238.887L470.652 244.07L469.563 245.479L462.853 240.297L458.418 246.039L465.36 251.4L464.271 252.81L455.773 246.247ZM466.921 255.098L480.348 240.763L487.622 247.576L486.405 248.876L480.566 243.407L475.715 248.586L481.34 253.855L480.123 255.155L474.498 249.886L468.357 256.443L466.921 255.098ZM476.193 264.049L490.936 251.071L498.031 259.131L496.694 260.307L490.899 253.724L485.612 258.378L491.214 264.742L489.878 265.918L484.276 259.554L478.829 264.349L484.625 270.932L483.288 272.109L476.193 264.049ZM485.411 274.891L501.621 263.8L504.232 267.617C506.303 270.644 507.131 272.654 507.203 274.923C507.331 278.217 505.809 281.029 502.826 283.071C499.733 285.187 496.368 285.493 493.223 283.909C491.495 283.03 490.003 281.603 488.397 279.256L485.411 274.891ZM487.991 275.509L489.537 277.768C491.563 280.729 493.157 282.118 495.176 282.669C497.343 283.247 499.704 282.791 501.766 281.38C504.245 279.684 505.548 277.118 505.309 274.415C505.179 272.766 504.428 271.057 502.807 268.688L501.262 266.429L487.991 275.509ZM506.299 294.7L502.264 302.934L501.153 300.756L506.078 290.815C507.164 292.946 507.802 293.963 508.462 294.671C509.816 296.098 511.482 296.323 513.4 295.345C515.01 294.524 515.856 293.257 515.82 291.783C515.787 290.607 515.349 289.279 514.407 287.432L513.151 284.97L497.24 293.085L496.347 291.332L513.844 282.409L516.053 286.742C517.273 289.133 517.762 290.793 517.714 292.22C517.6 294.337 516.413 296.046 514.282 297.133C511.157 298.727 508.369 297.881 506.299 294.7ZM502.858 304.181L524.189 305.502L524.932 307.58L509.282 322.151L508.558 320.123L513.832 315.218L510.754 306.608L503.556 306.134L502.858 304.181ZM512.681 306.71L515.249 313.892L522.463 307.305L512.681 306.71ZM512.827 338.803L532.333 336.504L533.59 347.167L531.822 347.376L530.795 338.665L523.8 339.49L524.793 347.91L523.024 348.118L522.032 339.698L514.826 340.547L515.852 349.258L514.084 349.466L512.827 338.803ZM514.3 352.961L533.937 352.552L534.144 362.517L532.364 362.554L532.197 354.556L525.103 354.703L525.263 362.409L523.483 362.447L523.322 354.741L514.341 354.927L514.3 352.961ZM514.375 365.848L533.961 367.321L533.155 378.028L531.379 377.895L532.037 369.149L525.014 368.62L524.378 377.075L522.602 376.941L523.238 368.487L516.003 367.943L515.345 376.689L513.569 376.555L514.375 365.848ZM513.064 380.017L532.328 383.849L531.426 388.385C530.71 391.982 529.852 393.979 528.28 395.617C526.015 398.012 522.941 398.891 519.396 398.186C515.72 397.455 513.148 395.264 512.081 391.908C511.5 390.058 511.477 387.994 512.032 385.205L513.064 380.017ZM514.427 382.294L513.893 384.979C513.193 388.498 513.315 390.609 514.333 392.437C515.435 394.391 517.412 395.759 519.863 396.247C522.808 396.833 525.554 395.97 527.319 393.909C528.407 392.662 529.104 390.931 529.664 388.115L530.198 385.43L514.427 382.294ZM513.514 408.8L504.807 411.676L505.587 409.358L516.136 405.924C515.373 408.191 515.093 409.359 515.048 410.325C514.976 412.292 515.98 413.639 518.021 414.326C519.734 414.902 521.231 414.62 522.259 413.564C523.077 412.717 523.719 411.475 524.38 409.51L525.261 406.89L508.332 401.196L508.959 399.332L527.576 405.594L526.025 410.204C525.169 412.748 524.325 414.259 523.271 415.222C521.679 416.622 519.627 416.969 517.36 416.206C514.035 415.088 512.689 412.504 513.514 408.8ZM504.332 412.973L518.31 429.14L517.346 431.123L495.986 430.134L496.927 428.198L504.123 428.535L508.121 420.313L503.425 414.837L504.332 412.973ZM509.397 421.761L506.061 428.621L515.814 429.167L509.397 421.761ZM486.555 444.309L501.828 456.658L495.077 465.008L493.692 463.888L499.207 457.068L493.73 452.64L488.399 459.233L487.015 458.113L492.345 451.52L486.703 446.958L481.189 453.778L479.804 452.658L486.555 444.309ZM477.456 455.256L491.486 469.002L484.51 476.121L483.238 474.875L488.837 469.161L483.769 464.194L478.374 469.7L477.102 468.453L482.497 462.948L476.08 456.661L477.456 455.256ZM468.3 464.325L480.946 479.353L472.731 486.266L471.584 484.904L478.295 479.257L473.76 473.868L467.273 479.327L466.126 477.964L472.613 472.505L467.941 466.953L461.231 472.601L460.084 471.238L468.3 464.325ZM457.255 473.298L467.981 489.752L464.107 492.277C461.035 494.28 459.007 495.063 456.736 495.084C453.44 495.138 450.663 493.554 448.689 490.526C446.642 487.387 446.411 484.015 448.065 480.907C448.982 479.199 450.442 477.739 452.824 476.186L457.255 473.298ZM456.58 475.864L454.287 477.359C451.281 479.318 449.857 480.881 449.261 482.887C448.635 485.041 449.038 487.411 450.402 489.504C452.042 492.02 454.579 493.381 457.286 493.202C458.938 493.109 460.663 492.397 463.068 490.829L465.361 489.334L456.58 475.864ZM436.983 493.737L428.842 489.518L431.045 488.456L440.872 493.603C438.718 494.642 437.686 495.257 436.964 495.9C435.506 497.223 435.245 498.883 436.179 500.822C436.964 502.45 438.212 503.324 439.686 503.322C440.863 503.315 442.2 502.907 444.067 502.006L446.557 500.806L438.802 484.717L440.574 483.863L449.102 501.556L444.721 503.668C442.303 504.834 440.632 505.285 439.207 505.205C437.093 505.044 435.411 503.819 434.372 501.664C432.849 498.504 433.757 495.735 436.983 493.737ZM427.582 490.084L425.783 511.38L423.689 512.076L409.473 496.104L411.516 495.425L416.302 500.808L424.978 497.924L425.615 490.738L427.582 490.084ZM424.834 499.848L417.595 502.254L424.019 509.614L424.834 499.848ZM392.745 499.273L394.607 518.826L383.917 519.843L383.749 518.071L392.48 517.239L391.812 510.228L383.372 511.031L383.203 509.259L391.644 508.455L390.956 501.232L382.225 502.063L382.056 500.291L392.745 499.273ZM378.557 500.429L378.529 520.07L368.563 520.056L368.565 518.275L376.565 518.286L376.575 511.19L368.868 511.179L368.87 509.398L376.578 509.409L376.59 500.426L378.557 500.429ZM365.672 500.217L363.761 519.765L353.074 518.72L353.247 516.947L361.977 517.801L362.662 510.791L354.224 509.966L354.397 508.194L362.835 509.019L363.541 501.798L354.812 500.944L354.986 499.172L365.672 500.217ZM351.535 498.589L347.274 517.762L342.76 516.759C339.179 515.963 337.202 515.061 335.599 513.452C333.255 511.134 332.445 508.041 333.229 504.513C334.042 500.854 336.291 498.332 339.67 497.34C341.532 496.801 343.596 496.824 346.372 497.441L351.535 498.589ZM349.229 499.9L346.557 499.307C343.054 498.528 340.941 498.603 339.09 499.58C337.113 500.638 335.7 502.584 335.158 505.023C334.506 507.955 335.308 510.719 337.329 512.53C338.551 513.645 340.266 514.381 343.068 515.003L345.741 515.597L349.229 499.9ZM322.75 498.395L320.07 489.626L322.37 490.457L325.566 501.08C323.317 500.267 322.156 499.96 321.191 499.894C319.226 499.777 317.857 500.752 317.125 502.776C316.51 504.476 316.758 505.979 317.791 507.031C318.619 507.867 319.847 508.537 321.797 509.242L324.396 510.181L330.468 493.385L332.318 494.053L325.64 512.525L321.066 510.871C318.542 509.958 317.05 509.08 316.111 508.006C314.747 506.382 314.446 504.323 315.259 502.074C316.452 498.774 319.065 497.487 322.75 498.395ZM318.784 489.121L302.307 502.732L300.345 501.723L301.814 480.391L303.729 481.376L303.23 488.562L311.36 492.744L316.94 488.173L318.784 489.121ZM309.884 493.987L303.101 490.498L302.335 500.236L309.884 493.987ZM287.855 470.644L275.169 485.638L266.972 478.703L268.122 477.343L274.818 483.008L279.367 477.631L272.894 472.155L274.045 470.796L280.517 476.272L285.204 470.733L278.508 465.068L279.658 463.708L287.855 470.644ZM277.112 461.304L263.062 475.028L256.098 467.898L257.371 466.654L262.961 472.377L268.038 467.418L262.652 461.905L263.926 460.66L269.312 466.174L275.738 459.897L277.112 461.304ZM268.251 451.947L252.917 464.221L246.207 455.838L247.597 454.725L253.078 461.573L258.577 457.171L253.278 450.552L254.669 449.439L259.967 456.059L265.632 451.524L260.151 444.677L261.541 443.564L268.251 451.947ZM259.547 440.689L242.863 451.053L240.422 447.125C238.487 444.009 237.749 441.964 237.777 439.694C237.795 436.398 239.439 433.655 242.51 431.748C245.693 429.77 249.068 429.613 252.14 431.335C253.828 432.289 255.255 433.78 256.756 436.196L259.547 440.689ZM256.996 439.958L255.552 437.632C253.658 434.584 252.127 433.126 250.134 432.487C247.995 431.814 245.616 432.165 243.494 433.483C240.943 435.068 239.527 437.574 239.646 440.285C239.704 441.939 240.378 443.679 241.893 446.117L243.337 448.443L256.996 439.958ZM239.564 419.96L243.973 411.92L244.983 414.147L239.607 423.851C238.619 421.673 238.029 420.627 237.402 419.89C236.115 418.402 234.461 418.101 232.5 418.99C230.854 419.737 229.951 420.963 229.919 422.437C229.898 423.614 230.276 424.96 231.132 426.849L232.273 429.366L248.539 421.989L249.352 423.781L231.464 431.893L229.455 427.463C228.346 425.018 227.934 423.337 228.048 421.914C228.259 419.805 229.523 418.152 231.701 417.164C234.896 415.715 237.643 416.688 239.564 419.96ZM243.437 410.648L222.188 408.362L221.54 406.254L237.833 392.406L238.465 394.464L232.974 399.126L235.659 407.866L242.828 408.666L243.437 410.648ZM233.738 407.678L231.498 400.386L223.994 406.64L233.738 407.678ZM235.01 375.62L215.419 377.021L214.653 366.311L216.429 366.184L217.055 374.932L224.08 374.43L223.475 365.973L225.251 365.846L225.856 374.303L233.093 373.785L232.468 365.037L234.244 364.91L235.01 375.62ZM234.187 361.41L214.551 360.937L214.791 350.973L216.571 351.016L216.379 359.013L223.473 359.184L223.659 351.479L225.439 351.522L225.253 359.227L234.234 359.443L234.187 361.41ZM234.69 348.533L215.19 346.181L216.476 335.521L218.244 335.734L217.194 344.442L224.186 345.285L225.202 336.868L226.97 337.081L225.954 345.499L233.158 346.367L234.208 337.66L235.976 337.873L234.69 348.533ZM236.635 334.438L217.559 329.76L218.66 325.268C219.534 321.706 220.479 319.749 222.122 318.181C224.491 315.889 227.601 315.146 231.111 316.007C234.751 316.9 237.224 319.203 238.142 322.602C238.64 324.476 238.572 326.539 237.895 329.301L236.635 334.438ZM235.374 332.103L236.026 329.445C236.88 325.96 236.852 323.846 235.915 321.974C234.9 319.974 232.986 318.519 230.559 317.924C227.642 317.209 224.861 317.95 223.007 319.931C221.865 321.128 221.092 322.827 220.409 325.615L219.757 328.274L235.374 332.103ZM237.477 305.658L246.307 303.186L245.422 305.465L234.726 308.41C235.592 306.18 235.926 305.027 236.015 304.064C236.178 302.103 235.237 300.71 233.23 299.931C231.545 299.276 230.037 299.489 228.961 300.496C228.106 301.304 227.407 302.516 226.656 304.448L225.655 307.025L242.304 313.492L241.591 315.326L223.283 308.213L225.044 303.679C226.017 301.177 226.93 299.707 228.026 298.793C229.681 297.469 231.747 297.216 233.977 298.082C237.247 299.353 238.472 301.996 237.477 305.658ZM246.842 301.914L233.616 285.125L234.67 283.188L255.963 285.151L254.934 287.042L247.761 286.377L243.391 294.408L247.833 300.093L246.842 301.914ZM242.183 292.903L245.829 286.203L236.111 285.212L242.183 292.903Z" fill="#AF8C6C"/>
</svg>
