<svg xmlns="http://www.w3.org/2000/svg" width="36" height="33" viewBox="0 0 36 33" fill="none">
  <path d="M0.351053 30.4257C-0.0691436 30.7841 -0.119237 31.4153 0.239166 31.8355C0.597569 32.2557 1.22875 32.3058 1.64895 31.9474L1 31.1865L0.351053 30.4257ZM35.9969 2.26564C36.0406 1.71509 35.6297 1.23336 35.0791 1.18966L26.1073 0.477612C25.5568 0.433918 25.075 0.844807 25.0313 1.39536C24.9876 1.94592 25.3985 2.42765 25.9491 2.47134L33.924 3.10428L33.2911 11.0792C33.2474 11.6298 33.6583 12.1115 34.2088 12.1552C34.7594 12.1989 35.2411 11.788 35.2848 11.2374L35.9969 2.26564ZM1 31.1865L1.64895 31.9474L35.6489 2.94736L35 2.18652L34.3511 1.42569L0.351053 30.4257L1 31.1865Z" fill="#AF8C6C"/>
</svg>